<svg width="80" height="80" viewBox="0 0 80 80" fill="none" xmlns="http://www.w3.org/2000/svg">
<g clip-path="url(#clip0_101_26247)">
<path d="M70.3715 29.1846C71.5122 27.4053 71.8527 25.2142 71.3056 23.1727C70.7586 21.1314 69.3682 19.4039 67.4908 18.4335C65.9673 17.6458 65.0345 16.0302 65.1143 14.3171C65.2125 12.206 64.4118 10.1381 62.9174 8.64355C61.423 7.14928 59.3543 6.34941 57.244 6.44661C55.5313 6.5263 53.9151 5.5933 53.1276 4.07013C52.1571 2.19257 50.4295 0.802222 48.3882 0.255331C46.3469 -0.291873 44.1556 0.0487623 42.3765 1.18942C40.9327 2.11476 39.0669 2.11507 37.6234 1.18942C35.8443 0.0489186 33.6528 -0.291716 31.6118 0.255331C29.5703 0.802222 27.8429 2.19257 26.8723 4.07013C26.0848 5.59346 24.4669 6.52708 22.7559 6.44661C20.6449 6.34973 18.577 7.14913 17.0825 8.64355C15.5881 10.138 14.7874 12.206 14.8855 14.3171C14.9652 16.0302 14.0324 17.6458 12.5091 18.4335C10.6317 19.4039 9.24115 21.1314 8.6941 23.1727C8.14721 25.214 8.48754 27.4053 9.62819 29.1846C10.5538 30.6282 10.5538 32.4939 9.62819 33.9376C8.48754 35.7168 8.14706 37.908 8.6941 39.9495C9.24115 41.9908 10.6315 43.7183 12.5089 44.6887C14.0324 45.4763 14.9652 47.092 14.8854 48.805C14.7873 50.9162 15.5879 52.9841 17.0823 54.4786C18.5406 55.937 20.5454 56.7315 22.6033 56.6785L14.8219 70.1561C14.506 70.7035 14.5508 71.3873 14.9355 71.8887C15.3202 72.3899 15.9692 72.6098 16.5796 72.4467L25.3158 70.1058L27.657 78.8418C27.8206 79.4523 28.3358 79.9042 28.9624 79.9866C29.0308 79.9956 29.0991 80 29.1667 80C29.7196 80 30.238 79.7062 30.5194 79.2187L39.9999 62.7981L49.4803 79.2187C49.7619 79.7062 50.2802 80 50.833 80C50.9008 80 50.9691 79.9956 51.0374 79.9866C51.664 79.9042 52.1791 79.4523 52.3427 78.8418L54.6836 70.1056L63.4198 72.4465C64.0301 72.6101 64.679 72.3899 65.0639 71.8885C65.4486 71.3871 65.4934 70.7033 65.1775 70.156L57.3963 56.6784C59.4545 56.7324 61.4589 55.9366 62.9173 54.4785C64.4117 52.9841 65.2123 50.916 65.1142 48.8049C65.0345 47.0919 65.9673 45.4762 67.4907 44.6885C69.3681 43.7182 70.7586 41.9906 71.3056 39.9493C71.8525 37.908 71.5122 35.7167 70.3715 33.9374C69.4459 32.4939 69.4459 30.6284 70.3715 29.1846ZM29.6992 74.3892L27.9303 67.7876C27.8229 67.3871 27.5612 67.046 27.2023 66.8388C26.8435 66.6316 26.4173 66.5754 26.0166 66.6827L19.4149 68.4517L25.6751 57.6086C26.1649 57.9917 26.5768 58.4803 26.8723 59.0519C27.8428 60.9294 29.5703 62.3198 31.6116 62.8667C32.2506 63.0379 32.9042 63.1222 33.5551 63.1222C34.5883 63.1222 35.6147 62.9089 36.5662 62.4953L29.6992 74.3892ZM53.9832 66.6827C53.5826 66.5752 53.1563 66.6315 52.7976 66.8388C52.4387 67.046 52.1768 67.3873 52.0696 67.7876L50.3006 74.3892L43.4342 62.4961C44.985 63.1701 46.7357 63.3095 48.3882 62.8665C50.4297 62.3196 52.1571 60.9293 53.1277 59.0517C53.4231 58.4805 53.8354 57.9925 54.3257 57.6098L60.5852 68.4515L53.9832 66.6827ZM67.7407 35.6243C68.4177 36.6803 68.6116 37.9291 68.2869 39.1407C67.9622 40.3523 67.1699 41.3367 66.0556 41.9126C63.4512 43.2591 61.8563 46.0215 61.9925 48.9502C62.0508 50.2032 61.5946 51.3817 60.7075 52.2686C59.8206 53.1556 58.6407 53.613 57.3893 53.5536C54.4611 53.4208 51.698 55.0124 50.3516 57.6167C49.7755 58.7311 48.7911 59.5235 47.5795 59.848C46.368 60.1725 45.1192 59.9786 44.0633 59.3016C42.8685 58.5356 41.5047 58.1417 40.1355 58.1172C40.1156 58.1155 40.096 58.1142 40.0761 58.1133C40.0516 58.112 40.0271 58.1117 40.0024 58.1115C39.975 58.1115 39.9477 58.112 39.9203 58.1134C39.902 58.1144 39.8839 58.1156 39.8658 58.1172C38.4962 58.1415 37.132 58.5355 35.9368 59.3017C34.881 59.9785 33.6325 60.1727 32.4207 59.848C31.2091 59.5235 30.2247 58.7311 29.6486 57.6168C28.3556 55.1155 25.7568 53.5455 22.9587 53.5455C22.8431 53.5455 22.7272 53.5483 22.6109 53.5536C21.3582 53.6131 20.1794 53.1555 19.2927 52.2686C18.4056 51.3815 17.9494 50.203 18.0077 48.9502C18.1439 46.0215 16.549 43.2591 13.9446 41.9125C12.8303 41.3365 12.038 40.3523 11.7133 39.1407C11.3886 37.9291 11.5826 36.6803 12.2595 35.6243C13.8421 33.156 13.8421 29.9662 12.2595 27.4978C11.5825 26.4419 11.3886 25.1931 11.7133 23.9815C12.038 22.7699 12.8303 21.7855 13.9446 21.2095C16.549 19.8631 18.1439 17.1007 18.0077 14.172C17.9494 12.919 18.4056 11.7405 19.2927 10.8536C20.1796 9.96655 21.3598 9.50982 22.6109 9.56857C25.5402 9.70326 28.3022 8.10993 29.6486 5.50548C30.2247 4.39108 31.2091 3.59871 32.4207 3.27417C33.632 2.94963 34.8811 3.14354 35.9369 3.82059C38.4053 5.40298 41.5949 5.40298 44.0633 3.82059C44.0633 3.82059 44.0633 3.82059 44.0634 3.82044C45.1191 3.1437 46.3679 2.94947 47.5795 3.27417C48.7911 3.59871 49.7755 4.39108 50.3516 5.50533C51.698 8.11009 54.4614 9.70483 57.3893 9.56857C58.6423 9.50982 59.8208 9.96671 60.7075 10.8536C61.5946 11.7407 62.0508 12.9191 61.9925 14.172C61.8563 17.1007 63.4512 19.8631 66.0556 21.2097C67.1699 21.7856 67.9622 22.7699 68.2869 23.9815C68.6116 25.1931 68.4176 26.4419 67.7407 27.4978C66.1581 29.9662 66.1581 33.156 67.7407 35.6243Z" fill="#2F9D3A"/>
<path d="M26.2335 41.0552C26.2335 42.658 27.5376 43.9621 29.1405 43.9621H33.7655C34.6366 43.9621 35.4174 43.5751 35.9507 42.966C37.4334 43.6201 39.0381 43.9621 40.678 43.9621H48.6904C51.4894 43.9621 53.7665 41.685 53.7665 38.8862V32.1629C53.7665 29.3639 51.4894 27.0868 48.6904 27.0868H46.6794L47.4727 24.7614C48.2117 22.5954 47.0629 20.1972 44.9122 19.4155C43.0053 18.722 40.8672 19.4842 39.8285 21.2279C38.7273 23.0762 37.2021 24.6722 35.4079 25.8599C34.9402 25.5383 34.3749 25.3492 33.7656 25.3492H29.1406C27.5376 25.3492 26.2337 26.6533 26.2337 28.2562V41.0552H26.2335ZM42.5131 22.827C42.7849 22.3706 43.345 22.1713 43.8445 22.3524C44.4076 22.5571 44.7084 23.1851 44.515 23.7523L43.3681 27.1144C42.6434 27.2501 42.0945 27.8851 42.0945 28.6492C42.0945 29.512 42.794 30.2117 43.657 30.2117H44.4844C44.4881 30.2117 44.4919 30.2122 44.4956 30.2122C44.4995 30.2122 44.5034 30.2117 44.5073 30.2117H48.6904C49.7662 30.2117 50.6414 31.0871 50.6414 32.1627V38.886C50.6414 39.9619 49.7661 40.8369 48.6904 40.8369H40.678C39.2739 40.8369 37.9046 40.4956 36.6724 39.8461V28.7634L36.8632 28.6421C39.1642 27.1798 41.1179 25.1689 42.5131 22.827ZM29.3586 28.474H33.5473V40.7591V40.7598V40.8369H29.3586V28.474Z" fill="#2F9D3A"/>
<path d="M40.0001 8.4353C36.4104 8.4353 32.9694 9.23564 29.7729 10.8144C28.9991 11.1965 28.6816 12.1334 29.0637 12.9073C29.4457 13.6808 30.3824 13.9987 31.1565 13.6164C33.9191 12.2523 36.8945 11.5606 40.0001 11.5606C51.0285 11.5606 60.0007 20.5328 60.0007 31.5611C60.0007 42.5894 51.0285 51.5617 40.0001 51.5617C28.9716 51.5617 19.9995 42.5894 19.9995 31.5611C19.9995 28.4557 20.6912 25.4803 22.0555 22.7176C22.4375 21.9438 22.1202 21.0068 21.3462 20.6246C20.5722 20.243 19.6354 20.56 19.2534 21.3338C17.6747 24.5305 16.8744 27.9713 16.8744 31.561C16.8744 44.3124 27.2486 54.6867 40.0001 54.6867C52.7515 54.6867 63.1257 44.3124 63.1257 31.561C63.1257 18.8095 52.7515 8.4353 40.0001 8.4353Z" fill="#2F9D3A"/>
<path d="M24.7527 17.8762C25.1636 17.8762 25.5667 17.709 25.8574 17.4184C26.148 17.1278 26.3152 16.7247 26.3152 16.3137C26.3152 15.9028 26.148 15.4997 25.8574 15.209C25.5667 14.9186 25.1636 14.7512 24.7527 14.7512C24.3417 14.7512 23.9386 14.9184 23.648 15.209C23.3574 15.4997 23.1902 15.9028 23.1902 16.3137C23.1902 16.7247 23.3574 17.1278 23.648 17.4184C23.9386 17.709 24.3417 17.8762 24.7527 17.8762Z" fill="#2F9D3A"/>
</g>
<defs>
<clipPath id="clip0_101_26247">
<rect width="80" height="80" fill="white"/>
</clipPath>
</defs>
</svg>
