<svg width="80" height="80" viewBox="0 0 80 80" fill="none" xmlns="http://www.w3.org/2000/svg">
<g clip-path="url(#clip0_101_26262)">
<path d="M76.5912 39.7136L76.5321 39.7158C74.7176 39.784 73.1513 41.059 72.7233 42.8165L71.4679 47.972C70.2754 52.8681 66.9951 56.9456 62.468 59.1587C61.9365 59.4184 61.3366 59.3615 60.8635 59.0059C60.3904 58.6504 60.1688 58.0901 60.2705 57.5072L61.2616 51.8306C61.5602 50.1201 60.4604 48.5129 58.7577 48.1717C57.4654 47.9131 56.1713 48.4628 55.4607 49.5729L49.046 59.5933C48.1276 58.9312 46.8363 59.0104 46.0104 59.8361L41.3574 64.489C40.8997 64.9468 40.8997 65.6887 41.3574 66.1464L54.8677 79.6567C55.0966 79.8854 55.3966 79.9998 55.6965 79.9998C55.9963 79.9998 56.2963 79.8854 56.5252 79.6567L61.1782 75.0037C62.0483 74.1334 62.0908 72.7456 61.3082 71.8225C62.8007 70.9923 64.2576 70.0411 65.6397 68.9923C66.1554 68.6012 66.2562 67.8661 65.8649 67.3504C65.4741 66.835 64.739 66.734 64.223 67.1253C61.8468 68.9279 59.8552 69.9376 59.593 70.0934L50.7612 61.2615L57.4346 50.8368C57.6205 50.5464 57.9591 50.4034 58.2972 50.47C58.743 50.5593 59.0308 50.98 58.9526 51.4276L57.9615 57.1042C57.709 58.5509 58.2815 59.9976 59.4554 60.8797C60.6294 61.7618 62.178 61.9092 63.4972 61.2643C68.6518 58.7443 72.3871 54.1017 73.7449 48.5267L75.0004 43.3712C75.4044 41.7112 77.7922 41.634 77.6515 43.0887C76.8802 51.0404 73.3265 58.5217 67.6447 64.1543C67.1852 64.61 67.1819 65.352 67.6376 65.8115C68.0932 66.2711 68.8349 66.2747 69.2947 65.8187C75.3641 59.8018 79.1604 51.8098 79.9841 43.3148C80.1752 41.3472 78.5933 39.6426 76.5912 39.7136ZM55.6965 77.1708L43.8443 65.3186L47.6782 61.4934L59.5207 73.3462L55.6965 77.1708Z" fill="#2F9D3A"/>
<path d="M24.7814 19.7655L26.3396 20.6289C26.3525 20.6363 26.3633 20.6467 26.3708 20.6597L28.8086 24.8819C28.8161 24.8947 28.8199 24.9094 28.8196 24.9242L28.7885 26.7056C28.7732 27.5866 29.2375 28.4075 30.0007 28.8481L33.5318 30.8866C33.9069 31.1034 34.3258 31.2116 34.7444 31.2116C35.1771 31.2116 35.6094 31.0961 35.9932 30.8653L37.521 29.9474C37.5333 29.94 37.5477 29.9361 37.5625 29.9361H42.4382C42.453 29.9361 42.4675 29.94 42.4802 29.9477L44.0075 30.8655C44.763 31.3192 45.7063 31.3275 46.4688 30.8867L49.9999 28.8481C50.763 28.4077 51.2272 27.5867 51.2121 26.7056L51.1811 24.9242C51.1808 24.9094 51.1846 24.8949 51.1919 24.882L53.63 20.6595C53.6374 20.6467 53.6482 20.6363 53.6607 20.6292L55.2191 19.7655C55.9897 19.3384 56.4685 18.5256 56.4685 17.6445V13.5672C56.4685 12.6863 55.9899 11.8736 55.2191 11.4463L53.6611 10.5828C53.6482 10.5755 53.6374 10.565 53.6297 10.5519L53.4889 10.308C53.1654 9.74767 52.4483 9.55564 51.8882 9.87939C51.3277 10.203 51.1358 10.9197 51.4596 11.4802L51.6 11.7238C51.8199 12.1047 52.1394 12.4188 52.5246 12.6324L54.0827 13.4959C54.1086 13.5105 54.1249 13.5377 54.1249 13.5672V17.6445C54.1249 17.6741 54.1088 17.7013 54.083 17.7156L52.5241 18.5797C52.1394 18.793 51.8199 19.1072 51.6002 19.4878L49.1621 23.7103C48.9422 24.0914 48.83 24.5253 48.8377 24.965L48.8686 26.7464C48.8693 26.7759 48.8536 26.8034 48.828 26.8183L45.2968 28.857C45.2713 28.8716 45.2394 28.8713 45.2146 28.8563L43.6874 27.9386C43.3102 27.712 42.8783 27.5922 42.4383 27.5922H37.5627C37.1224 27.5922 36.6904 27.712 36.3138 27.9386L34.7863 28.8563C34.7611 28.8714 34.7296 28.8717 34.7041 28.8569L31.173 26.8184C31.1474 26.8034 31.1316 26.7761 31.1322 26.7464L31.1633 24.965C31.171 24.5253 31.0588 24.0914 30.8388 23.7102L28.401 19.488C28.1811 19.107 27.8616 18.793 27.4764 18.5794L25.918 17.7156C25.8922 17.7014 25.8761 17.6741 25.8761 17.6445V13.5672C25.8761 13.5377 25.8924 13.5103 25.9179 13.4961L27.4769 12.632C27.8616 12.4188 28.1811 12.1045 28.4008 11.7239L30.8389 7.50142C31.0588 7.12033 31.171 6.68642 31.1633 6.24673L31.1322 4.46532C31.1316 4.43595 31.1472 4.40845 31.1729 4.39361L34.7043 2.3547C34.7299 2.34001 34.7611 2.34032 34.7864 2.35564L36.3139 3.27345C36.691 3.49986 37.1229 3.6197 37.5627 3.6197H42.4383C42.8779 3.6197 43.3096 3.50001 43.6872 3.27329L45.2146 2.35564C45.2399 2.34032 45.2713 2.34001 45.2969 2.35486L48.8283 4.39376C48.8536 4.40845 48.8693 4.43595 48.8686 4.46532L48.8377 6.24689C48.8313 6.61532 48.9133 6.98986 49.075 7.3297C49.3532 7.91407 50.0525 8.16267 50.6366 7.88486C51.2211 7.60689 51.4696 6.90767 51.1918 6.32329C51.1838 6.30673 51.1811 6.29361 51.1813 6.28767L51.2122 4.50626C51.2275 3.62501 50.763 2.80407 50 2.36392L46.4688 0.325012C45.7058 -0.115769 44.7624 -0.1078 44.0072 0.346419L42.4805 1.26376C42.4675 1.27157 42.4529 1.27564 42.4382 1.27564H37.5625C37.5477 1.27564 37.5332 1.27157 37.5205 1.26407L35.9935 0.346575C35.2386 -0.107331 34.295 -0.115925 33.5319 0.324856L30.0008 2.36345C29.2377 2.80392 28.7733 3.62486 28.7885 4.50595L28.8196 6.28736C28.8199 6.3022 28.8161 6.31673 28.8088 6.32954L26.3707 10.552C26.3633 10.5649 26.3525 10.5753 26.34 10.5824L24.781 11.4463C24.0107 11.8736 23.5322 12.6864 23.5322 13.567V17.6444C23.5322 18.5256 24.0108 19.3383 24.7814 19.7655Z" fill="#2F9D3A"/>
<path d="M39.9999 8.5188C36.0921 8.5188 32.9128 11.6982 32.9128 15.606C32.9128 19.5138 36.0922 22.693 39.9999 22.693C43.9078 22.693 47.0871 19.5136 47.0871 15.606C47.0872 11.698 43.9078 8.5188 39.9999 8.5188ZM39.9999 20.3494C37.3844 20.3494 35.2566 18.2216 35.2566 15.6061C35.2566 12.9907 37.3844 10.8625 39.9999 10.8625C42.6153 10.8625 44.7433 12.9905 44.7433 15.606C44.7433 18.2215 42.6153 20.3494 39.9999 20.3494Z" fill="#2F9D3A"/>
<path d="M61.3198 38.6171C64.2275 38.6171 66.5931 36.2515 66.5931 33.3438C66.5931 30.4362 64.2275 28.0706 61.3198 28.0706C58.4122 28.0706 56.0464 30.4362 56.0464 33.3438C56.0464 36.2515 58.4122 38.6171 61.3198 38.6171ZM61.3198 30.4143C62.9351 30.4143 64.2494 31.7285 64.2494 33.3438C64.2494 34.9592 62.9351 36.2734 61.3198 36.2734C59.7044 36.2734 58.3901 34.9592 58.3901 33.3438C58.3901 31.7285 59.7045 30.4143 61.3198 30.4143Z" fill="#2F9D3A"/>
<path d="M53.1869 25.6538L53.207 26.8049L51.6006 29.5872L50.5942 30.1452C49.9454 30.5044 49.5425 31.1885 49.5425 31.9302V34.7572C49.5425 35.4986 49.9453 36.1827 50.5939 36.5422L51.6006 37.1003L53.207 39.8825L53.1869 41.0338C53.174 41.775 53.5648 42.466 54.2069 42.8367L56.6553 44.2502C56.9711 44.4325 57.3233 44.5235 57.6756 44.5235C58.0397 44.5235 58.4036 44.4263 58.7267 44.2322L59.7134 43.6392H62.9262L63.913 44.2322C64.5484 44.6139 65.342 44.621 65.9845 44.2502L68.4326 42.8367C69.0748 42.4661 69.4656 41.7753 69.4528 41.0338L69.4326 39.8825L71.039 37.1003L72.0462 36.5421C72.6945 36.1824 73.0973 35.4985 73.0973 34.7572V31.9302C73.0973 31.1886 72.6945 30.5047 72.0461 30.1453L71.039 29.5871L69.4326 26.8049L69.4528 25.6538C69.4656 24.9122 69.0748 24.2214 68.4328 23.8508L65.9844 22.4372C65.3426 22.0664 64.5487 22.0738 63.913 22.4553L62.9262 23.0483H59.7134L58.7267 22.4553C58.0912 22.0736 57.2975 22.0666 56.6551 22.4372L54.2067 23.851C53.5648 24.2216 53.174 24.9125 53.1869 25.6538ZM55.5333 25.7913L57.6723 24.5563L58.5786 25.1008C58.8959 25.2914 59.2592 25.3921 59.6295 25.3921H63.0101C63.3803 25.3921 63.7436 25.2913 64.0612 25.1006L64.9673 24.5563L67.1064 25.7913L67.088 26.8481C67.0815 27.2188 67.1761 27.5842 67.3611 27.9041L69.0511 30.8311C69.2361 31.1521 69.5051 31.4166 69.829 31.5961L70.7536 32.1086V34.5788L69.8287 35.0913C69.5048 35.271 69.2358 35.5356 69.0512 35.8556L67.3611 38.783C67.1758 39.1038 67.0814 39.4689 67.0878 39.8394L67.1062 40.8963L64.9672 42.1311L64.0609 41.5867C63.7436 41.3961 63.3803 41.2955 63.01 41.2955H59.6295C59.2594 41.2955 58.8961 41.3963 58.5783 41.5869L57.6723 42.1311L55.5333 40.8963L55.5517 39.8394C55.5581 39.4689 55.4637 39.1038 55.2786 38.7833L53.5886 35.8563C53.4036 35.5353 53.1345 35.2708 52.8105 35.0913L51.8861 34.5789V32.1088L52.8095 31.5969C53.1339 31.4175 53.4034 31.1527 53.5883 30.8319L55.2781 27.905C55.4636 27.5844 55.5581 27.2189 55.5517 26.8483L55.5333 25.7913Z" fill="#2F9D3A"/>
<path d="M18.68 38.6171C21.5877 38.6171 23.9533 36.2515 23.9533 33.3438C23.9533 30.4362 21.5877 28.0706 18.68 28.0706C15.7724 28.0706 13.4067 30.4362 13.4067 33.3438C13.4067 36.2515 15.7724 38.6171 18.68 38.6171ZM18.68 30.4143C20.2953 30.4143 21.6096 31.7285 21.6096 33.3438C21.6096 34.9592 20.2953 36.2734 18.68 36.2734C17.0647 36.2734 15.7505 34.9592 15.7505 33.3438C15.7505 31.7285 17.0647 30.4143 18.68 30.4143Z" fill="#2F9D3A"/>
<path d="M7.95399 36.5421L8.96103 37.1002L10.5673 39.8824L10.547 41.0337C10.5342 41.7751 10.9251 42.466 11.5671 42.8367L14.0152 44.2499C14.657 44.6209 15.4509 44.614 16.087 44.2321L17.0737 43.6391H20.2863L21.2732 44.2321C21.5963 44.4262 21.9601 44.5234 22.3245 44.5234C22.6767 44.5234 23.029 44.4324 23.3446 44.2501L25.7927 42.8367C26.4349 42.466 26.8259 41.7751 26.8131 41.0335L26.7927 39.8824L28.399 37.1002L29.4063 36.542C30.0546 36.1823 30.4576 35.4984 30.4576 34.7571V31.9301C30.4576 31.1885 30.0546 30.5046 29.4062 30.1452L28.3992 29.587L26.7927 26.8048L26.8131 25.6537C26.8259 24.9123 26.4349 24.2213 25.7929 23.8507L23.3448 22.4373C22.7029 22.0662 21.9092 22.0734 21.2734 22.4552L20.2863 23.0482H17.0737L16.0867 22.4551C15.4509 22.0732 14.6573 22.0667 14.0154 22.4371L11.5673 23.8507C10.9251 24.2213 10.5342 24.9123 10.547 25.6538L10.5673 26.8048L8.96103 29.587L7.95415 30.1451C7.30556 30.5046 6.90259 31.1885 6.90259 31.9301V34.7571C6.90259 35.4985 7.3054 36.1824 7.95399 36.5421ZM9.24634 32.1087L10.1698 31.5968C10.4938 31.4176 10.7632 31.1531 10.9487 30.8318L12.6392 27.904C12.8242 27.5834 12.9185 27.2182 12.9121 26.8481L12.8935 25.7915L15.0327 24.5563L15.9385 25.1006C16.2559 25.2913 16.6193 25.3921 16.9898 25.3921H20.3706C20.7409 25.3921 21.1043 25.2912 21.4215 25.1007L22.3277 24.5563L24.4668 25.7915L24.4482 26.8482C24.4418 27.2182 24.5362 27.5834 24.7213 27.9042L26.4118 30.8321C26.5973 31.1532 26.8665 31.4176 27.1906 31.597L28.114 32.1088V34.579L27.1896 35.0913C26.8659 35.2707 26.5968 35.5351 26.4117 35.8559L24.721 38.7842C24.536 39.1049 24.4418 39.4698 24.4482 39.8398L24.4668 40.8963L22.3276 42.1313L21.4218 41.5873C21.1045 41.3965 20.741 41.2957 20.3706 41.2957H16.9898C16.6195 41.2957 16.256 41.3967 15.9388 41.5871L15.0327 42.1313L12.8935 40.8963L12.9121 39.8396C12.9185 39.4698 12.8243 39.1049 12.639 38.7835L10.9485 35.8556C10.7634 35.5351 10.4945 35.2709 10.1706 35.0913L9.24618 34.579L9.24634 32.1087Z" fill="#2F9D3A"/>
<path d="M33.9895 59.8359C33.1636 59.0103 31.8723 58.9311 30.9539 59.5931L24.5392 49.5728C23.8287 48.4628 22.5337 47.9118 21.242 48.1717C19.5395 48.5128 18.4395 50.12 18.7383 51.8304L19.7292 57.507C19.8309 58.0898 19.6093 58.6501 19.1362 59.0057C18.6634 59.3612 18.0633 59.4182 17.5317 59.1584C13.0047 56.9451 9.72434 52.8676 8.532 47.9718L7.27638 42.8164C6.84841 41.0589 5.28216 39.7839 3.46684 39.7156L3.40934 39.7134C1.42278 39.6373 -0.175968 41.3361 0.0155946 43.3146C1.1795 55.3162 8.15919 65.9637 18.6923 71.8218C17.9092 72.7447 17.9511 74.1329 18.8217 75.0037L23.4747 79.6567C23.7036 79.8854 24.0034 79.9998 24.3034 79.9998C24.6033 79.9998 24.9032 79.8854 25.132 79.6567L30.3323 74.4567C30.79 73.9989 30.79 73.257 30.3323 72.7993C29.8747 72.342 29.1328 72.3417 28.675 72.7993L24.3043 77.17L20.4792 73.3362L32.3322 61.4936L36.1567 65.3179L31.9879 69.4864C31.5303 69.9442 31.5303 70.6861 31.9879 71.1437C32.4458 71.6011 33.1878 71.6014 33.6451 71.1437L38.6423 66.1467C38.8622 65.9268 38.9856 65.6289 38.9856 65.3179C38.9856 65.007 38.8622 64.7092 38.6425 64.4892L33.9895 59.8359ZM2.34841 43.0886C2.29263 42.5128 2.76388 42.0296 3.32184 42.0559C3.33747 42.0565 3.39559 42.0586 3.37997 42.0581C4.1645 42.0875 4.81528 42.6151 4.99919 43.3711L6.25481 48.5265C7.61247 54.1014 11.3476 58.744 16.5023 61.2642C17.8215 61.909 19.3704 61.7618 20.5442 60.8795C21.7183 59.9973 22.2906 58.5507 22.0381 57.104L21.0472 51.4275C20.9689 50.9798 21.2568 50.5592 21.7023 50.4698C22.0412 50.4023 22.3792 50.5459 22.5651 50.8367L29.2386 61.2614L20.4067 70.0932C20.2648 69.9615 4.22434 62.4318 2.34841 43.0886Z" fill="#2F9D3A"/>
</g>
<defs>
<clipPath id="clip0_101_26262">
<rect width="80" height="80" fill="white"/>
</clipPath>
</defs>
</svg>
