<svg width="64" height="18" viewBox="0 0 64 18" fill="none" xmlns="http://www.w3.org/2000/svg">
<path d="M8.484 4.6V13H7.608V5.368H2.292V13H1.416V4.6H8.484ZM14.3663 6.64C14.9583 6.64 15.4943 6.776 15.9743 7.048C16.4543 7.312 16.8303 7.688 17.1023 8.176C17.3743 8.664 17.5103 9.22 17.5103 9.844C17.5103 10.476 17.3743 11.036 17.1023 11.524C16.8303 12.012 16.4543 12.392 15.9743 12.664C15.5023 12.928 14.9663 13.06 14.3663 13.06C13.8543 13.06 13.3903 12.956 12.9743 12.748C12.5663 12.532 12.2303 12.22 11.9663 11.812V15.328H11.1143V6.688H11.9303V7.936C12.1863 7.52 12.5223 7.2 12.9383 6.976C13.3623 6.752 13.8383 6.64 14.3663 6.64ZM14.3063 12.304C14.7463 12.304 15.1463 12.204 15.5063 12.004C15.8663 11.796 16.1463 11.504 16.3463 11.128C16.5543 10.752 16.6583 10.324 16.6583 9.844C16.6583 9.364 16.5543 8.94 16.3463 8.572C16.1463 8.196 15.8663 7.904 15.5063 7.696C15.1463 7.488 14.7463 7.384 14.3063 7.384C13.8583 7.384 13.4543 7.488 13.0943 7.696C12.7423 7.904 12.4623 8.196 12.2543 8.572C12.0543 8.94 11.9543 9.364 11.9543 9.844C11.9543 10.324 12.0543 10.752 12.2543 11.128C12.4623 11.504 12.7423 11.796 13.0943 12.004C13.4543 12.204 13.8583 12.304 14.3063 12.304ZM21.4778 6.64C22.3018 6.64 22.9338 6.848 23.3738 7.264C23.8138 7.672 24.0338 8.28 24.0338 9.088V13H23.2178V12.016C23.0258 12.344 22.7418 12.6 22.3658 12.784C21.9978 12.968 21.5578 13.06 21.0458 13.06C20.3418 13.06 19.7818 12.892 19.3658 12.556C18.9498 12.22 18.7418 11.776 18.7418 11.224C18.7418 10.688 18.9338 10.256 19.3178 9.928C19.7098 9.6 20.3298 9.436 21.1777 9.436H23.1818V9.052C23.1818 8.508 23.0298 8.096 22.7258 7.816C22.4218 7.528 21.9778 7.384 21.3938 7.384C20.9938 7.384 20.6098 7.452 20.2418 7.588C19.8738 7.716 19.5578 7.896 19.2938 8.128L18.9098 7.492C19.2298 7.22 19.6138 7.012 20.0618 6.868C20.5098 6.716 20.9818 6.64 21.4778 6.64ZM21.1777 12.388C21.6578 12.388 22.0698 12.28 22.4138 12.064C22.7578 11.84 23.0138 11.52 23.1818 11.104V10.072H21.2018C20.1218 10.072 19.5818 10.448 19.5818 11.2C19.5818 11.568 19.7218 11.86 20.0018 12.076C20.2818 12.284 20.6738 12.388 21.1777 12.388ZM26.3018 6.688H27.1538V11.704L31.3658 6.688H32.1218V13H31.2698V7.984L27.0698 13H26.3018V6.688ZM29.1698 5.776C28.6258 5.776 28.1938 5.64 27.8738 5.368C27.5538 5.096 27.3898 4.712 27.3818 4.216H27.9938C28.0018 4.528 28.1138 4.78 28.3298 4.972C28.5458 5.156 28.8258 5.248 29.1698 5.248C29.5138 5.248 29.7938 5.156 30.0098 4.972C30.2338 4.78 30.3498 4.528 30.3578 4.216H30.9698C30.9618 4.712 30.7938 5.096 30.4658 5.368C30.1458 5.64 29.7138 5.776 29.1698 5.776ZM37.2036 13.06C36.5796 13.06 36.0196 12.924 35.5236 12.652C35.0356 12.38 34.6516 12 34.3716 11.512C34.0916 11.016 33.9516 10.46 33.9516 9.844C33.9516 9.228 34.0916 8.676 34.3716 8.188C34.6516 7.7 35.0356 7.32 35.5236 7.048C36.0196 6.776 36.5796 6.64 37.2036 6.64C37.7476 6.64 38.2316 6.748 38.6556 6.964C39.0876 7.172 39.4276 7.48 39.6756 7.888L39.0396 8.32C38.8316 8.008 38.5676 7.776 38.2476 7.624C37.9276 7.464 37.5796 7.384 37.2036 7.384C36.7476 7.384 36.3356 7.488 35.9676 7.696C35.6076 7.896 35.3236 8.184 35.1156 8.56C34.9156 8.936 34.8156 9.364 34.8156 9.844C34.8156 10.332 34.9156 10.764 35.1156 11.14C35.3236 11.508 35.6076 11.796 35.9676 12.004C36.3356 12.204 36.7476 12.304 37.2036 12.304C37.5796 12.304 37.9276 12.228 38.2476 12.076C38.5676 11.924 38.8316 11.692 39.0396 11.38L39.6756 11.812C39.4276 12.22 39.0876 12.532 38.6556 12.748C38.2236 12.956 37.7396 13.06 37.2036 13.06Z" fill="#222222"/>
<path d="M51.25 15.75C50.4216 15.75 49.75 15.0784 49.75 14.25V3.75C49.75 2.92157 50.4216 2.25 51.25 2.25H56.5L60.25 6V14.25C60.25 15.0784 59.5784 15.75 58.75 15.75H51.25Z" stroke="#2F9D3A" stroke-linecap="round" stroke-linejoin="round"/>
<path d="M60.25 6.75L56.5 6.75C56.0858 6.75 55.75 6.41421 55.75 6L55.75 2.25" stroke="#2F9D3A" stroke-linecap="round" stroke-linejoin="round"/>
<path d="M52.75 11.25L55 13.5M55 13.5L57.25 11.25M55 13.5L55 9" stroke="#2F9D3A" stroke-linecap="round" stroke-linejoin="round"/>
</svg>
