<svg width="69" height="89" viewBox="0 0 69 89" fill="none" xmlns="http://www.w3.org/2000/svg">
<path d="M7.20693 86.0741V80.8231H2.67611L2.60545 82.7989C2.54363 84.6234 2.34049 86.0385 1.50145 86.0741H1.23649L1.22766 88.3792H2.29633V87.0531H7.03912V88.3792H8.09896V86.0741H7.20693ZM3.6123 82.9057L3.65646 81.8021H6.07643V86.0741H2.94107C3.418 85.5757 3.55931 84.3208 3.6123 82.9057Z" fill="#22553D"/>
<path d="M9.18888 87.0531H10.3194V80.8231H9.18888V87.0531Z" fill="#22553D"/>
<path d="M18.8349 87.0531L18.8173 80.8231H17.8811L15.4611 84.9438L13.0147 80.8231H12.0696V87.0531H13.156V82.9769L15.1873 86.3411H15.6996L17.7309 82.9235L17.7398 87.0531H18.8349Z" fill="#22553D"/>
<path d="M27.4926 80.8231H22.264V81.8021H24.3042V87.0531H25.4436V81.8021H27.4926V80.8231Z" fill="#22553D"/>
<path d="M32.8886 87.0531H34.0897L31.2988 80.8231H30.1683L27.3863 87.0531H28.5697L29.1791 85.6113H32.2703L32.8886 87.0531ZM29.5678 84.7035L30.7247 81.9801L31.8906 84.7035H29.5678Z" fill="#22553D"/>
<path d="M40.3226 87.1421C41.3383 87.1421 42.2038 86.7772 42.7779 86.1008L42.036 85.3888C41.5856 85.8872 41.0291 86.1275 40.3844 86.1275C39.1038 86.1275 38.1764 85.2197 38.1764 83.9381C38.1764 82.6565 39.1038 81.7487 40.3844 81.7487C41.0291 81.7487 41.5856 81.989 42.036 82.4785L42.7779 81.7754C42.2038 81.099 41.3383 80.7341 40.3314 80.7341C38.4325 80.7341 37.0194 82.078 37.0194 83.9381C37.0194 85.7982 38.4325 87.1421 40.3226 87.1421Z" fill="#22553D"/>
<path d="M48.2616 80.8231H43.033V81.8021H45.0732V87.0531H46.2126V81.8021H48.2616V80.8231Z" fill="#22553D"/>
<path d="M49.2606 87.0531H50.3293L53.6501 82.6387V87.0531H54.7806V80.8231H53.712L50.3911 85.2464V80.8231H49.2606V87.0531Z" fill="#22553D"/>
<path d="M57.1867 80.8231L57.0984 83.4041C57.0366 85.1574 56.807 86.083 56.0562 86.083C55.9591 86.083 55.8796 86.0741 55.7913 86.0474L55.7118 87.0531C55.9502 87.1065 56.1446 87.1421 56.3389 87.1421C57.6725 87.1421 58.0346 85.816 58.1141 83.3596L58.1671 81.8021H60.6047V87.0531H61.7352V80.8231H57.1867Z" fill="#22553D"/>
<path d="M66.0512 82.9324H64.3378V80.8231H63.2073V87.0531H65.8657C67.429 87.0531 68.3563 86.3233 68.3563 84.926C68.3563 83.5999 67.5261 82.9324 66.0512 82.9324ZM65.8127 86.1631H64.3378V83.8135H65.8127C66.7047 83.8135 67.2082 84.1606 67.2082 84.9438C67.2082 85.7448 66.6959 86.1631 65.8127 86.1631Z" fill="#22553D"/>
<path d="M22.4002 42.998C27.1916 42.998 30.7244 39.616 30.7244 34.988C30.7244 30.36 27.1916 26.978 22.4002 26.978C17.6089 26.978 14.076 30.3823 14.076 34.988C14.076 39.5938 17.6089 42.998 22.4002 42.998ZM22.4002 40.4615C19.2869 40.4615 16.9685 38.1698 16.9685 34.988C16.9685 31.8063 19.2869 29.5145 22.4002 29.5145C25.5135 29.5145 27.8319 31.8063 27.8319 34.988C27.8319 38.1698 25.5135 40.4615 22.4002 40.4615Z" fill="#22553D"/>
<path d="M54.1578 42.7755L54.1357 27.2005H51.7732L45.7453 37.5245L39.6071 27.2005H37.2445V42.7755H39.9824V32.585L45.0608 40.9955H46.3415L51.4199 32.4515L51.442 42.7755H54.1578Z" fill="#22553D"/>
<path d="M30.9893 63.6349L30.9673 48.0599H28.6047L22.5769 58.3839L16.4386 48.0599H14.076V63.6349H16.814V53.4444L21.8924 61.8549H23.173L28.2514 53.3109L28.2735 63.6349H30.9893Z" fill="#22553D"/>
<path d="M45.8619 63.8574C50.6533 63.8574 54.1861 60.4754 54.1861 55.8474C54.1861 51.2194 50.6533 47.8374 45.8619 47.8374C41.0706 47.8374 37.5378 51.2417 37.5378 55.8474C37.5378 60.4532 41.0706 63.8574 45.8619 63.8574ZM45.8619 61.3209C42.7487 61.3209 40.4303 59.0292 40.4303 55.8474C40.4303 52.6657 42.7487 50.3739 45.8619 50.3739C48.9752 50.3739 51.2936 52.6657 51.2936 55.8474C51.2936 59.0292 48.9752 61.3209 45.8619 61.3209Z" fill="#22553D"/>
<path fill-rule="evenodd" clip-rule="evenodd" d="M68.448 22.6494L51.612 11.6028L34.776 0.556152L1.104 22.6494V75.3718H68.448V22.6494ZM34.776 6.54992L17.8918 17.6282L6.09245 25.411V27.6705V70.3506H63.4595V27.6705V25.411L51.6602 17.6282L34.776 6.54992Z" fill="#22553D"/>
<path d="M14.076 4.4499H22.08V10.2905L14.076 16.1312V4.4499Z" fill="#22553D"/>
</svg>
