<svg width="16" height="16" viewBox="0 0 16 16" fill="none" xmlns="http://www.w3.org/2000/svg">
<path fill-rule="evenodd" clip-rule="evenodd" d="M1.5 6.27767C1.5 5.26515 2.32081 4.44434 3.33333 4.44434H12.6667C13.6792 4.44434 14.5 5.26515 14.5 6.27767V12.9443C14.5 13.9569 13.6792 14.7777 12.6667 14.7777H3.33333C2.32081 14.7777 1.5 13.9569 1.5 12.9443V6.27767ZM3.33333 5.44434C2.8731 5.44434 2.5 5.81743 2.5 6.27767V12.9443C2.5 13.4046 2.8731 13.7777 3.33333 13.7777H12.6667C13.1269 13.7777 13.5 13.4046 13.5 12.9443V6.27767C13.5 5.81743 13.1269 5.44434 12.6667 5.44434H3.33333Z" fill="#222222"/>
<path fill-rule="evenodd" clip-rule="evenodd" d="M1.58403 6.00054C1.7372 5.77077 2.04764 5.70868 2.2774 5.86186L8.00005 9.67696L13.7227 5.86186C13.9525 5.70868 14.2629 5.77077 14.4161 6.00054C14.5693 6.2303 14.5072 6.54073 14.2774 6.69391L8.2774 10.6939C8.10945 10.8059 7.89065 10.8059 7.7227 10.6939L1.7227 6.69391C1.49294 6.54073 1.43085 6.2303 1.58403 6.00054Z" fill="#222222"/>
</svg>
