<svg width="40" height="40" viewBox="0 0 40 40" fill="none" xmlns="http://www.w3.org/2000/svg">
<g>
<path fill-rule="evenodd" clip-rule="evenodd" d="M36.25 20C36.25 19.3096 35.6904 18.75 35 18.75H5C4.30964 18.75 3.75 19.3096 3.75 20C3.75 20.6904 4.30964 21.25 5 21.25H35C35.6904 21.25 36.25 20.6904 36.25 20Z" fill="#222222"/>
<path fill-rule="evenodd" clip-rule="evenodd" d="M14.2169 10.7829C13.7287 10.2947 12.9373 10.2947 12.4491 10.7829L4.11579 19.1162C3.88137 19.3506 3.74967 19.6686 3.74967 20.0001C3.74967 20.3316 3.88137 20.6495 4.11579 20.884L12.4491 29.2173C12.9373 29.7055 13.7287 29.7055 14.2169 29.2173C14.705 28.7291 14.705 27.9377 14.2169 27.4495L6.76744 20.0001L14.2169 12.5506C14.705 12.0625 14.705 11.271 14.2169 10.7829Z" fill="#222222"/>
</g>
</svg>
