<svg width="40" height="40" viewBox="0 0 40 40" fill="none" xmlns="http://www.w3.org/2000/svg">
<path fill-rule="evenodd" clip-rule="evenodd" d="M3.75 20C3.75 19.3096 4.30964 18.75 5 18.75H35C35.6904 18.75 36.25 19.3096 36.25 20C36.25 20.6904 35.6904 21.25 35 21.25H5C4.30964 21.25 3.75 20.6904 3.75 20Z" fill="#222222"/>
<path fill-rule="evenodd" clip-rule="evenodd" d="M25.7831 10.7829C26.2713 10.2947 27.0627 10.2947 27.5509 10.7829L35.8842 19.1162C36.1186 19.3506 36.2503 19.6686 36.2503 20.0001C36.2503 20.3316 36.1186 20.6495 35.8842 20.884L27.5509 29.2173C27.0627 29.7055 26.2713 29.7055 25.7831 29.2173C25.295 28.7291 25.295 27.9377 25.7831 27.4495L33.2326 20.0001L25.7831 12.5506C25.295 12.0625 25.295 11.271 25.7831 10.7829Z" fill="#222222"/>
</svg>
